<svg width="1440" height="260" viewBox="0 0 1440 260" fill="none" xmlns="http://www.w3.org/2000/svg">
<path d="M676 226.879C423.858 176.484 72 224.752 0 260V0H1440V157.325C1376 212.446 1024 296.433 676 226.879Z" fill="white"/>
<path fill-rule="evenodd" clip-rule="evenodd" d="M5.84819 228.367C2.95125 230.112 0.747432 231.77 -0.723083 233.309L0.723056 234.691C2.02091 233.332 4.05763 231.78 6.88023 230.08L5.84819 228.367ZM927.73 229.195C922.458 229.178 917.156 229.127 911.826 229.043L911.794 231.042C917.133 231.127 922.443 231.178 927.723 231.195L927.73 229.195ZM959.465 228.902C954.191 229.017 948.885 229.1 943.547 229.149L943.565 231.149C948.911 231.1 954.226 231.017 959.508 230.902L959.465 228.902ZM895.995 228.693C890.73 228.543 885.438 228.36 880.12 228.143L880.038 230.141C885.365 230.359 890.665 230.542 895.938 230.692L895.995 228.693ZM991.18 227.811C985.91 228.059 980.606 228.275 975.267 228.459L975.336 230.457C980.683 230.274 985.996 230.057 991.274 229.809L991.18 227.811ZM864.276 227.397C859.025 227.116 853.748 226.802 848.447 226.453L848.316 228.449C853.625 228.798 858.91 229.113 864.17 229.394L864.276 227.397ZM1022.86 225.919C1017.6 226.3 1012.3 226.65 1006.97 226.969L1007.09 228.965C1012.43 228.646 1017.73 228.295 1023 227.914L1022.86 225.919ZM832.592 225.31C827.358 224.899 822.102 224.455 816.823 223.975L816.642 225.967C821.929 226.448 827.194 226.893 832.436 227.303L832.592 225.31ZM1054.47 223.223C1049.23 223.738 1043.95 224.222 1038.63 224.676L1038.8 226.668C1044.13 226.214 1049.42 225.729 1054.66 225.214L1054.47 223.223ZM800.958 222.435C795.747 221.896 790.515 221.322 785.263 220.714L785.032 222.7C790.293 223.31 795.533 223.884 800.752 224.424L800.958 222.435ZM1085.99 219.721C1080.78 220.368 1075.53 220.987 1070.23 221.575L1070.45 223.563C1075.76 222.973 1081.02 222.354 1086.24 221.706L1085.99 219.721ZM35.6097 215.632C29.8865 217.553 24.8083 219.446 20.3733 221.281L21.138 223.129C25.5247 221.314 30.5594 219.437 36.2459 217.528L35.6097 215.632ZM769.444 218.781C764.242 218.113 759.021 217.41 753.781 216.671L753.502 218.652C758.75 219.391 763.979 220.096 769.189 220.765L769.444 218.781ZM1117.4 215.409C1112.23 216.188 1107.01 216.94 1101.74 217.663L1102.01 219.645C1107.29 218.92 1112.52 218.167 1117.7 217.387L1117.4 215.409ZM738.06 214.356C735.431 213.952 732.797 213.54 730.158 213.118C727.468 212.688 724.785 212.262 722.11 211.841L721.799 213.817C724.472 214.238 727.153 214.663 729.842 215.093C732.485 215.515 735.123 215.929 737.757 216.333L738.06 214.356ZM1148.67 210.28C1143.55 211.19 1138.37 212.076 1133.13 212.934L1133.46 214.908C1138.7 214.048 1143.89 213.161 1149.02 212.249L1148.67 210.28ZM66.4329 206.731C60.909 208.117 55.7196 209.512 50.8636 210.906L51.4154 212.829C56.2486 211.441 61.4162 210.051 66.9195 208.671L66.4329 206.731ZM706.15 209.374C700.861 208.57 695.602 207.785 690.373 207.019L690.083 208.998C695.308 209.764 700.564 210.548 705.85 211.351L706.15 209.374ZM1179.91 204.299C1174.79 205.351 1169.62 206.379 1164.37 207.383L1164.75 209.347C1170 208.342 1175.19 207.312 1180.31 206.258L1179.91 204.299ZM674.364 204.716C669.02 203.961 663.709 203.227 658.43 202.511L658.161 204.493C663.437 205.208 668.744 205.942 674.085 206.696L674.364 204.716ZM97.9027 199.727C92.4212 200.809 87.1665 201.911 82.1378 203.027L82.571 204.979C87.5839 203.867 92.8235 202.768 98.2901 201.689L97.9027 199.727ZM1210.94 197.477C1205.83 198.674 1200.66 199.85 1195.41 201.003L1195.84 202.957C1201.1 201.801 1206.28 200.623 1211.39 199.424L1210.94 197.477ZM642.611 200.41C637.213 199.708 631.851 199.027 626.523 198.365L626.276 200.349C631.601 201.011 636.959 201.692 642.353 202.393L642.611 200.41ZM129.546 194.137C124.095 194.995 118.815 195.877 113.705 196.778L114.052 198.747C119.15 197.849 124.418 196.969 129.857 196.112L129.546 194.137ZM610.644 196.438C605.271 195.801 599.935 195.185 594.635 194.589L594.411 196.577C599.708 197.172 605.04 197.788 610.408 198.424L610.644 196.438ZM1241.68 189.807C1236.64 191.143 1231.51 192.462 1226.29 193.762L1226.78 195.703C1232 194.401 1237.14 193.079 1242.19 191.74L1241.68 189.807ZM578.623 192.836C573.294 192.268 568.002 191.721 562.748 191.194L562.548 193.184C567.798 193.711 573.086 194.258 578.411 194.825L578.623 192.836ZM161.414 189.655C155.952 190.337 150.629 191.043 145.443 191.771L145.721 193.752C150.896 193.025 156.21 192.32 161.662 191.64L161.414 189.655ZM546.611 189.625C541.272 189.123 535.973 188.641 530.713 188.18L530.539 190.173C535.794 190.633 541.089 191.115 546.424 191.616L546.611 189.625ZM193.424 186.121C187.996 186.646 182.682 187.196 177.483 187.769L177.702 189.757C182.893 189.185 188.197 188.636 193.616 188.112L193.424 186.121ZM514.595 186.819C509.221 186.383 503.889 185.968 498.601 185.574L498.452 187.568C503.736 187.962 509.063 188.377 514.433 188.812L514.595 186.819ZM1272.24 181.228C1267.27 182.705 1262.2 184.17 1257.04 185.62L1257.58 187.545C1262.75 186.093 1267.83 184.625 1272.81 183.145L1272.24 181.228ZM225.491 183.423C220.023 183.817 214.655 184.236 209.387 184.679L209.555 186.672C214.815 186.23 220.175 185.811 225.635 185.418L225.491 183.423ZM482.56 184.433C477.156 184.067 471.798 183.723 466.486 183.4L466.364 185.396C471.672 185.719 477.025 186.063 482.425 186.428L482.56 184.433ZM450.496 182.485C445.068 182.194 439.689 181.925 434.36 181.678L434.267 183.676C439.592 183.923 444.965 184.191 450.389 184.482L450.496 182.485ZM257.531 181.476C252.114 181.746 246.783 182.041 241.538 182.359L241.659 184.356C246.897 184.038 252.22 183.744 257.63 183.474L257.531 181.476ZM418.396 180.997C412.951 180.785 407.559 180.597 402.221 180.43L402.159 182.429C407.492 182.595 412.878 182.784 418.318 182.996L418.396 180.997ZM289.684 180.206C284.286 180.365 278.964 180.548 273.718 180.755L273.797 182.753C279.036 182.547 284.351 182.364 289.743 182.205L289.684 180.206ZM386.257 179.994C380.803 179.867 375.408 179.763 370.072 179.682L370.041 181.682C375.372 181.763 380.762 181.867 386.21 181.994L386.257 179.994ZM321.882 179.563C316.449 179.621 311.085 179.703 305.791 179.808L305.831 181.808C311.119 181.703 316.476 181.621 321.903 181.563L321.882 179.563ZM354.081 179.505C348.631 179.468 343.244 179.454 337.921 179.464L337.925 181.464C343.242 181.454 348.623 181.468 354.067 181.505L354.081 179.505ZM1302.52 171.701C1297.58 173.344 1292.52 174.981 1287.35 176.608L1287.95 178.516C1293.13 176.886 1298.2 175.245 1303.15 173.599L1302.52 171.701ZM1332.47 161.158C1327.65 162.955 1322.67 164.756 1317.56 166.557L1318.22 168.443C1323.35 166.639 1328.33 164.833 1333.16 163.032L1332.47 161.158ZM1361.93 149.5C1357.23 151.474 1352.34 153.472 1347.25 155.483L1347.99 157.343C1353.09 155.326 1358 153.324 1362.7 151.343L1361.93 149.5ZM1390.87 136.44C1386.37 138.628 1381.57 140.876 1376.48 143.169L1377.3 144.992C1382.41 142.692 1387.23 140.436 1391.75 138.239L1390.87 136.44ZM1418.72 121.464C1414.72 123.9 1410.13 126.512 1404.98 129.263L1405.92 131.027C1411.1 128.261 1415.72 125.631 1419.76 123.172L1418.72 121.464ZM1437.21 107.393C1436.13 108.798 1434.33 110.54 1431.77 112.578L1433.02 114.142C1435.63 112.062 1437.58 110.202 1438.79 108.607L1437.21 107.393Z" fill="#161C2F"/>
</svg>
