<svg width="375" height="88" viewBox="0 0 375 88" fill="none" xmlns="http://www.w3.org/2000/svg">
<path d="M176.141 79.0534C110.512 65.9362 18.9281 78.4996 0.1875 87.6743V-6.86646e-05H374.999V60.9494C358.341 75.2966 266.72 97.1574 176.141 79.0534Z" fill="white"/>
<path fill-rule="evenodd" clip-rule="evenodd" d="M1.71041 79.4408C0.956378 79.8951 0.382755 80.3267 0 80.7273L0.37641 81.0869C0.714222 80.7333 1.24435 80.3293 1.97904 79.8868L1.71041 79.4408ZM241.663 79.6565C240.291 79.652 238.911 79.6388 237.524 79.6168L237.515 80.1373C238.905 80.1594 240.287 80.1725 241.662 80.1771L241.663 79.6565ZM249.924 79.5803C248.551 79.6102 247.17 79.6317 245.78 79.6444L245.785 80.165C247.177 80.1522 248.56 80.1307 249.935 80.1007L249.924 79.5803ZM233.403 79.5257C232.033 79.4868 230.656 79.4392 229.271 79.3827L229.25 79.9028C230.636 79.9595 232.016 80.0071 233.388 80.046L233.403 79.5257ZM258.179 79.2962C256.807 79.3607 255.426 79.417 254.037 79.4648L254.054 79.985C255.446 79.9372 256.829 79.8808 258.203 79.8162L258.179 79.2962ZM225.147 79.1883C223.78 79.1154 222.407 79.0336 221.027 78.9427L220.993 79.4622C222.375 79.5532 223.751 79.6351 225.12 79.7082L225.147 79.1883ZM266.423 78.8038C265.055 78.9029 263.676 78.9941 262.288 79.077L262.319 79.5966C263.709 79.5136 265.09 79.4223 266.461 79.323L266.423 78.8038ZM216.9 78.6452C215.538 78.5384 214.17 78.4227 212.796 78.2979L212.749 78.8163C214.125 78.9413 215.495 79.0572 216.86 79.1641L216.9 78.6452ZM274.652 78.1022C273.288 78.236 271.914 78.3621 270.528 78.4801L270.573 78.9988C271.96 78.8806 273.337 78.7543 274.703 78.6202L274.652 78.1022ZM208.666 77.8968C207.31 77.7565 205.948 77.6073 204.581 77.4489L204.521 77.966C205.89 78.1247 207.254 78.2741 208.613 78.4146L208.666 77.8968ZM282.858 77.1906C281.501 77.3589 280.133 77.5199 278.753 77.6732L278.811 78.1906C280.193 78.0371 281.563 77.8758 282.922 77.7072L282.858 77.1906ZM9.45691 76.1263C7.96725 76.6262 6.64546 77.1189 5.4911 77.5966L5.69014 78.0776C6.83193 77.6051 8.1424 77.1165 9.62253 76.6198L9.45691 76.1263ZM200.464 76.9459C199.11 76.772 197.751 76.589 196.387 76.3967L196.314 76.9122C197.68 77.1047 199.041 77.288 200.397 77.4622L200.464 76.9459ZM291.033 76.0681C289.687 76.2708 288.328 76.4666 286.955 76.655L287.026 77.1707C288.401 76.982 289.762 76.7859 291.11 76.5829L291.033 76.0681ZM192.295 75.7941C191.611 75.689 190.925 75.5816 190.238 75.4718C189.538 75.3598 188.84 75.2491 188.143 75.1396L188.062 75.6538C188.758 75.7633 189.456 75.8739 190.156 75.9858C190.844 76.0958 191.531 76.2034 192.216 76.3087L192.295 75.7941ZM299.172 74.7332C297.838 74.9701 296.49 75.2005 295.127 75.4241L295.211 75.9378C296.576 75.7139 297.927 75.483 299.263 75.2458L299.172 74.7332ZM17.4798 73.8094C16.042 74.1701 14.6912 74.5333 13.4273 74.8961L13.5709 75.3965C14.8289 75.0354 16.174 74.6736 17.6064 74.3143L17.4798 73.8094ZM183.989 74.4974C182.613 74.2882 181.244 74.0839 179.883 73.8843L179.807 74.3994C181.167 74.5988 182.535 74.803 183.911 75.012L183.989 74.4974ZM307.302 73.1765C305.971 73.4501 304.623 73.7178 303.259 73.9791L303.357 74.4903C304.723 74.2287 306.073 73.9605 307.407 73.6864L307.302 73.1765ZM175.716 73.2848C174.325 73.0885 172.942 72.8972 171.568 72.7109L171.498 73.2268C172.872 73.413 174.253 73.6041 175.643 73.8003L175.716 73.2848ZM25.6709 71.9863C24.2442 72.268 22.8764 72.5549 21.5675 72.8452L21.6803 73.3534C22.9851 73.064 24.3489 72.778 25.7718 72.497L25.6709 71.9863ZM315.378 71.4007C314.05 71.7122 312.703 72.0183 311.337 72.3186L311.448 72.827C312.817 72.5263 314.167 72.2195 315.497 71.9075L315.378 71.4007ZM167.451 72.1641C166.046 71.9815 164.65 71.8041 163.263 71.6318L163.199 72.1484C164.585 72.3205 165.98 72.4978 167.384 72.6803L167.451 72.1641ZM33.9073 70.5313C32.4884 70.7547 31.114 70.9842 29.7839 71.2187L29.8743 71.7313C31.2012 71.4974 32.5725 71.2685 33.9883 71.0455L33.9073 70.5313ZM159.13 71.1302C157.732 70.9646 156.343 70.8042 154.963 70.649L154.905 71.1663C156.284 71.3214 157.672 71.4817 159.069 71.6472L159.13 71.1302ZM323.381 69.4043C322.067 69.7521 320.732 70.0955 319.376 70.4338L319.502 70.9389C320.861 70.6 322.198 70.2559 323.514 69.9075L323.381 69.4043ZM150.796 70.1927C149.409 70.045 148.031 69.9026 146.664 69.7653L146.612 70.2833C147.978 70.4205 149.354 70.5628 150.741 70.7103L150.796 70.1927ZM42.2022 69.3649C40.7804 69.5422 39.3947 69.7261 38.045 69.9156L38.1173 70.4311C39.4644 70.242 40.8475 70.0585 42.2666 69.8814L42.2022 69.3649ZM142.463 69.357C141.074 69.2263 139.694 69.101 138.326 68.9809L138.28 69.4995C139.648 69.6194 141.026 69.7447 142.415 69.8753L142.463 69.357ZM50.5337 68.445C49.1209 68.5816 47.7379 68.7248 46.3846 68.8739L46.4416 69.3914C47.7926 69.2425 49.1733 69.0996 50.5838 68.9631L50.5337 68.445ZM134.13 68.6266C132.731 68.5131 131.344 68.4051 129.967 68.3025L129.928 68.8216C131.304 68.9241 132.69 69.032 134.088 69.1454L134.13 68.6266ZM331.333 67.1714C330.04 67.5558 328.721 67.9371 327.377 68.3144L327.518 68.8156C328.864 68.4376 330.186 68.0555 331.482 67.6704L331.333 67.1714ZM58.8804 67.7426C57.4572 67.8451 56.06 67.9543 54.6888 68.0696L54.7324 68.5883C56.1016 68.4732 57.4967 68.3642 58.9178 68.2619L58.8804 67.7426ZM125.792 68.0055C124.385 67.9102 122.991 67.8207 121.608 67.7367L121.576 68.2563C122.958 68.3402 124.351 68.4297 125.757 68.5249L125.792 68.0055ZM117.446 67.4985C116.033 67.4227 114.633 67.3527 113.246 67.2885L113.222 67.8085C114.608 67.8727 116.007 67.9426 117.418 68.0184L117.446 67.4985ZM67.2199 67.236C65.8099 67.3062 64.4223 67.383 63.0571 67.4658L63.0886 67.9854C64.4519 67.9027 65.8377 67.8261 67.2458 67.7559L67.2199 67.236ZM109.091 67.1113C107.674 67.0561 106.27 67.007 104.881 66.9636L104.865 67.484C106.253 67.5272 107.655 67.5764 109.071 67.6315L109.091 67.1113ZM75.5889 66.9052C74.1838 66.9467 72.7986 66.9944 71.4332 67.0482L71.4537 67.5684C72.8174 67.5147 74.2009 67.467 75.6042 67.4256L75.5889 66.9052ZM100.725 66.8502C99.306 66.8171 97.9017 66.79 96.5127 66.7689L96.5048 67.2894C97.8924 67.3105 99.2952 67.3375 100.713 67.3707L100.725 66.8502ZM83.9695 66.7379C82.5554 66.753 81.1594 66.7744 79.7815 66.8018L79.7918 67.3223C81.1682 67.2949 82.5626 67.2735 83.9751 67.2585L83.9695 66.7379ZM92.3505 66.7229C90.9319 66.7131 89.5299 66.7096 88.1444 66.7121L88.1454 67.2326C89.5293 67.2302 90.9299 67.2337 92.347 67.2434L92.3505 66.7229ZM339.217 64.6916C337.931 65.1192 336.614 65.5453 335.267 65.9688L335.423 66.4655C336.773 66.041 338.093 65.614 339.381 65.1856L339.217 64.6916ZM347.011 61.9474C345.756 62.415 344.462 62.8839 343.13 63.3526L343.303 63.8436C344.638 63.3739 345.935 62.9039 347.192 62.4352L347.011 61.9474ZM354.679 58.9129C353.457 59.4269 352.184 59.9467 350.86 60.4702L351.051 60.9543C352.379 60.4295 353.656 59.9082 354.881 59.3927L354.679 58.9129ZM362.213 55.5137C361.041 56.0832 359.792 56.6682 358.467 57.265L358.68 57.7397C360.01 57.1409 361.264 56.5537 362.44 55.9818L362.213 55.5137ZM369.462 51.6155C368.42 52.2497 367.226 52.9295 365.885 53.6456L366.13 54.1048C367.479 53.3848 368.681 52.7002 369.733 52.0602L369.462 51.6155ZM374.273 47.953C373.993 48.3187 373.524 48.7721 372.858 49.3026L373.182 49.7097C373.862 49.1685 374.369 48.6842 374.686 48.2691L374.273 47.953Z" fill="#161C2F"/>
</svg>
