<svg width="54" height="36" viewBox="0 0 54 36" fill="none" xmlns="http://www.w3.org/2000/svg">
<path d="M27 32L3.61731 9.5L50.3827 9.5L27 32Z" fill="#FDFDFD"/>
<path d="M23.5858 20.236C23.1751 20.236 22.8391 20.0773 22.5778 19.76C22.3351 19.4427 22.2138 19.0507 22.2138 18.584C22.2138 18.1173 22.3538 17.7347 22.6338 17.436C22.9138 17.1373 23.2684 16.988 23.6978 16.988H26.7778C28.2338 16.988 29.3164 16.96 30.0258 16.904C30.5671 16.8667 30.9964 16.9973 31.3138 17.296C31.6311 17.5947 31.7898 18.0147 31.7898 18.556C31.7898 19.004 31.6311 19.3867 31.3138 19.704C30.9964 20.0213 30.5951 20.1893 30.1098 20.208C29.2138 20.2453 28.4298 20.264 27.7578 20.264L23.5858 20.236Z" fill="#333333"/>
</svg>
