<svg width="275" height="260" viewBox="0 0 275 260" fill="none" xmlns="http://www.w3.org/2000/svg">
<path d="M111.833 38.4476C110.434 36.9277 110.916 36.7886 112.153 37.5834C113.39 38.3781 117.078 41.2099 122.269 45.4089C139.571 59.1999 155.288 74.6108 169.195 91.4215C178.278 102.54 185.981 114.612 192.169 127.425C198.331 140.676 202.536 154.724 204.674 169.206C207.043 185.409 207.345 201.92 205.575 218.4C203.817 234.817 200.534 251.139 195.766 267.18C192.607 277.964 188.863 288.62 184.549 299.106C181.375 305.987 185.7 293.935 188.815 282.954C196.931 257.213 201.89 230.849 203.595 204.381C204.732 182.939 201.789 161.686 194.903 141.607C187.446 121.506 176.1 103.013 161.404 87.0046C152.879 77.2135 139.749 64.6101 132.294 57.6094C122.319 48.3712 116.003 42.8185 111.833 38.4476Z" fill="#95B4D7"/>
<path d="M205.819 181.089C203.997 170.399 198.263 160.814 189.569 153.925C185.571 150.594 180.62 148.382 175.24 147.523C172.458 147.137 169.583 147.362 166.839 148.179C164.095 148.996 161.557 150.383 159.422 152.233C158.261 153.175 157.467 154.448 157.178 155.832C156.848 158.917 160.588 160.447 163.627 161.286C179.062 165.487 193.303 172.497 205.557 181.924C210.179 163.305 222.462 146.755 239.706 135.911C241.149 134.821 242.915 134.191 244.725 134.12C248.328 134.342 249.475 138.605 249.067 142.031C248.32 148.506 245.208 154.666 240.255 159.469C236.527 162.826 232.398 165.769 227.959 168.234L201.84 184.074" fill="#95B4D7"/>
<path d="M182.078 112.303C176.084 106.255 168.08 102.238 159.214 100.828C150.349 99.4171 141.076 100.686 132.727 104.451C131.814 104.786 131.007 105.35 130.401 106.078C129.852 107.074 129.723 108.207 130.04 109.244C130.786 112.549 132.675 115.482 135.423 117.605C138.172 119.729 141.634 120.929 145.293 121.027C148.632 120.865 151.954 120.253 155.156 119.211L176.994 113.623C178.457 113.309 179.879 112.816 181.223 112.158C182.93 111.067 184.435 109.717 185.67 108.168C191.547 102.346 196.021 95.4428 198.762 87.9639C200.842 80.4179 198.162 71.5134 190.714 69.1414C186.926 71.0159 183.642 73.7068 181.152 76.976C178.663 80.2453 177.044 83.9922 176.44 87.8854C175.277 95.4491 175.702 103.071 177.692 110.322" fill="#95B4D7"/>
<path d="M149.646 73.2826C147.851 69.7562 144.809 66.954 141.002 65.3204C137.195 63.6868 132.84 63.3153 128.629 64.2648C124.345 65.4319 120.59 68.0144 118.091 71.5136C115.591 75.0128 114.523 79.1807 115.094 83.2124C115.265 84.2129 115.761 85.1248 116.517 85.8277C118.942 87.6761 122.651 85.1609 125.304 83.1708C129.175 80.325 133.641 78.2993 138.368 77.2459C143.094 76.1924 147.956 76.1386 152.59 77.0886C160.096 64.4617 167.879 50.9587 167.423 37.0882C167.521 36.0118 167.38 34.9405 167.01 33.9408C166.639 32.9412 166.047 32.0347 165.271 31.2777C162.142 28.8725 157.007 31.4932 154.405 34.7673C149.247 41.0329 146.694 48.7447 147.25 56.3823C147.805 63.7967 149.465 71.0477 152.183 77.9288" fill="#95B4D7"/>
<path d="M115.202 41.2369C113.073 35.4163 110.336 29.8308 107.029 24.5574C105.255 21.1463 102.522 18.2801 99.1026 16.2473C97.3031 15.2731 95.1875 14.8708 93.0577 15.098C90.9279 15.3251 88.8927 16.1701 87.2428 17.5122C85.6018 19.3001 84.6503 21.5311 84.5519 23.8219C84.4536 26.1127 85.2144 28.3201 86.7038 30.0649C89.8423 33.3579 93.8803 35.7992 98.4323 37.1558L115.473 43.9883" fill="#95B4D7"/>
<path d="M112.209 41.0467C103.303 40.5407 95.7775 48.4446 90.0991 55.4971C89.1001 56.4788 88.4816 57.7359 88.3502 59.0519C88.5059 59.9181 89.0199 60.6758 89.7843 61.1658C90.5487 61.6558 91.5038 61.8399 92.449 61.6795C94.3789 61.3092 96.2065 60.5043 97.7688 59.3364L117.15 47.0819C113.657 37.9122 113.376 27.8002 116.346 18.1459C116.674 16.1838 117.562 14.312 118.916 12.7289C120.27 11.1457 122.039 9.91023 124.036 9.15334C126.167 9.01118 128.245 9.56055 129.914 10.7077C131.584 11.8548 132.741 13.5286 133.19 15.4433C134.963 21.1467 134.27 27.388 131.256 32.8737C128.242 38.3593 123.137 42.6685 116.999 44.9082" fill="#95B4D7"/>
<path d="M55.176 128.487C53.4728 127.538 53.8593 127.329 55.1991 127.723C56.5389 128.117 60.6741 129.667 66.559 132.022C86.1121 139.704 104.747 149.017 122.197 159.829C133.636 167.003 144.138 175.228 153.517 184.358C163.007 193.848 170.998 204.378 177.284 215.676C184.296 228.322 189.565 241.633 192.983 255.338C196.392 268.989 198.419 282.869 199.039 296.823C199.497 306.194 199.397 315.579 198.739 324.941C198.002 331.154 198.197 320.521 197.639 311C197.055 288.515 193.478 266.163 186.977 244.383C181.494 226.787 172.443 210.167 160.242 195.293C147.527 180.516 131.844 167.825 113.936 157.822C103.394 151.611 87.9081 144.05 79.1632 139.882C67.5007 134.411 60.2058 131.187 55.176 128.487Z" fill="#95B4D7"/>
<path d="M181.9 225.069C177.044 216.779 169.045 210.172 159.232 206.345C154.671 204.453 149.601 203.659 144.559 204.048C141.971 204.297 139.483 205.058 137.292 206.273C135.101 207.487 133.266 209.123 131.929 211.051C131.182 212.049 130.862 213.24 131.025 214.419C131.665 216.983 135.453 217.469 138.407 217.535C153.396 217.827 168.176 220.634 181.92 225.799C180.389 209.787 186.293 193.907 198.333 181.648C199.286 180.475 200.664 179.608 202.251 179.186C205.52 178.64 207.831 181.861 208.505 184.718C209.803 190.113 208.902 195.729 205.955 200.618C203.659 204.088 200.881 207.305 197.683 210.196L179.268 228.289" fill="#95B4D7"/>
<path d="M139.971 174.145C132.812 170.455 124.483 168.814 116.177 169.459C107.871 170.104 100.014 173 93.7348 177.733C93.025 178.189 92.4791 178.808 92.1601 179.519C91.9742 180.437 92.2027 181.38 92.7986 182.157C94.4628 184.683 97.0292 186.678 100.115 187.844C103.201 189.009 106.641 189.283 109.922 188.625C112.84 187.821 115.607 186.656 118.137 185.167L135.852 176.238C137.058 175.689 138.172 175.003 139.166 174.199C140.353 172.972 141.282 171.575 141.91 170.071C145.37 164.172 147.255 157.679 147.426 151.069C146.989 144.538 141.911 137.866 134.573 137.447C131.775 139.728 129.671 142.57 128.449 145.719C127.227 148.869 126.923 152.23 127.565 155.505C128.823 161.865 131.509 167.952 135.473 173.424" fill="#95B4D7"/>
<path d="M99.3306 149.079C96.6678 146.584 93.1157 144.928 89.2376 144.372C85.3594 143.817 81.3771 144.394 77.9223 146.011C74.4682 147.82 71.9138 150.669 70.7521 154.007C69.5904 157.345 69.9038 160.935 71.6319 164.086C72.0869 164.862 72.8041 165.5 73.6887 165.917C76.404 166.925 78.938 164.141 80.6925 161.994C83.2711 158.909 86.627 156.368 90.5079 154.562C94.3888 152.756 98.6938 151.732 103.099 151.568C105.946 139.828 108.773 127.323 104.167 116.181C103.928 115.289 103.478 114.45 102.847 113.715C102.215 112.98 101.414 112.365 100.495 111.909C96.9862 110.591 93.2159 113.749 91.895 116.925C89.2087 123.04 89.2759 129.8 92.0834 135.874C94.8222 141.767 98.4931 147.305 102.992 152.33" fill="#95B4D7"/>
<path d="M59.0153 130.067C55.3607 125.782 51.237 121.81 46.7009 118.206C44.0919 115.801 40.7944 114.03 37.1403 113.073C35.246 112.647 33.2441 112.747 31.4201 113.361C29.5962 113.974 28.0435 115.068 26.9837 116.488C26.0668 118.267 25.8969 120.266 26.5033 122.141C27.1096 124.016 28.4543 125.65 30.3063 126.763C34.0928 128.798 38.4207 129.961 42.8768 130.142L60.0903 132.241" fill="#95B4D7"/>
<path d="M56.2978 130.517C48.2301 131.902 43.9359 139.821 41.0255 146.677C40.435 147.674 40.2661 148.816 40.5478 149.909C40.9485 150.579 41.6348 151.089 42.4625 151.332C43.2902 151.575 44.1948 151.531 44.9861 151.211C46.5891 150.522 47.9695 149.501 49.0042 148.241L62.5165 134.409C56.6355 127.686 53.3233 119.553 53.0388 111.135C52.7362 109.48 52.9585 107.785 53.6822 106.23C54.4058 104.675 55.6039 103.317 57.1494 102.302C59.0002 101.757 61.0129 101.783 62.8439 102.376C64.675 102.968 66.2107 104.091 67.1892 105.551C70.4922 109.813 71.767 115.007 70.7495 120.058C69.732 125.108 66.5002 129.628 61.7239 132.679" fill="#95B4D7"/>
</svg>
