<svg width="448" height="523" viewBox="0 0 448 523" fill="none" xmlns="http://www.w3.org/2000/svg">
<g filter="url(#filter0_f)">
<path d="M359.965 290.133H322.401V165.905C322.521 152.915 320.066 140.029 315.178 127.993C310.29 115.957 303.066 105.009 293.923 95.7805C284.779 86.5522 273.898 79.227 261.908 74.2279C249.918 69.2288 237.055 66.6549 224.065 66.6549C211.074 66.6549 198.212 69.2288 186.221 74.2279C174.231 79.227 163.35 86.5522 154.207 95.7805C145.063 105.009 137.839 115.957 132.951 127.993C128.063 140.029 125.608 152.915 125.728 165.905V290.133H88.1638V165.905C88.1638 90.9697 149.125 30 224.06 30C298.996 30 359.965 90.9697 359.965 165.905V290.133Z" fill="#A2BCDA"/>
<path d="M402.908 231.182H45.2252C37.1776 231.182 30.6537 237.706 30.6537 245.753L30.6537 478.148C30.6537 486.196 37.1776 492.72 45.2252 492.72H402.908C410.955 492.72 417.479 486.196 417.479 478.148V245.753C417.479 237.706 410.955 231.182 402.908 231.182Z" fill="#A2BCDA"/>
<path d="M417.478 478.149V335.757C299.636 435.452 129.75 472.89 33.4374 486.663C34.7806 488.533 36.5489 490.057 38.5967 491.111C40.6444 492.164 42.913 492.715 45.2157 492.72H402.907C404.82 492.721 406.716 492.345 408.484 491.613C410.253 490.881 411.859 489.808 413.213 488.455C414.566 487.101 415.639 485.495 416.371 483.726C417.103 481.958 417.479 480.062 417.478 478.149Z" fill="#A2BCDA"/>
<path d="M42.8519 258.744V308.785C44.1728 287.534 54.4031 241.295 118.368 241.295H60.3175C55.691 241.304 51.2563 243.145 47.9832 246.415C44.7102 249.684 42.8653 254.117 42.8519 258.744Z" fill="#A2BCDA"/>
<rect x="85.0897" y="288.579" width="285.798" height="149.704" rx="1" fill="#A2BCDA"/>
<path d="M180.355 315.798H112.308V412.783H180.355V315.798Z" fill="#A2BCDA"/>
<path d="M262.012 315.798H193.965V412.783H262.012V315.798Z" fill="#A2BCDA"/>
<path d="M343.668 315.798H275.621V412.783H343.668V315.798Z" fill="#A2BCDA"/>
</g>
<path d="M370.355 290.133H332.79V165.905C332.911 152.915 330.456 140.029 325.568 127.993C320.68 115.957 313.456 105.009 304.312 95.7805C295.169 86.5522 284.288 79.227 272.297 74.2279C260.307 69.2288 247.445 66.6549 234.454 66.6549C221.463 66.6549 208.601 69.2288 196.611 74.2279C184.62 79.227 173.739 86.5522 164.596 95.7805C155.453 105.009 148.228 115.957 143.34 127.993C138.452 140.029 135.998 152.915 136.118 165.905V290.133H98.5532V165.905C98.5532 90.9697 159.514 30 234.45 30C309.385 30 370.355 90.9697 370.355 165.905V290.133Z" fill="#7D7D7D"/>
<path d="M413.297 231.182H55.6143C47.5667 231.182 41.0428 237.706 41.0428 245.753V478.148C41.0428 486.196 47.5667 492.72 55.6143 492.72H413.297C421.344 492.72 427.868 486.196 427.868 478.148V245.753C427.868 237.706 421.344 231.182 413.297 231.182Z" fill="url(#paint0_linear)"/>
<path d="M427.867 478.149V335.757C310.025 435.452 140.14 472.89 43.8267 486.663C45.1699 488.533 46.9382 490.057 48.9859 491.111C51.0337 492.164 53.3023 492.715 55.605 492.72H413.296C415.21 492.721 417.105 492.345 418.874 491.613C420.642 490.881 422.249 489.808 423.602 488.455C424.955 487.101 426.029 485.495 426.76 483.726C427.492 481.958 427.868 480.062 427.867 478.149Z" fill="#A4A4A4"/>
<path d="M49.2412 254.744V304.785C50.5621 283.534 60.7924 237.295 124.757 237.295H66.7068C62.0803 237.304 57.6455 239.145 54.3725 242.415C51.0995 245.684 49.2545 250.117 49.2412 254.744Z" fill="#A4A4A4"/>
<defs>
<filter id="filter0_f" x="0.653687" y="0" width="446.825" height="522.72" filterUnits="userSpaceOnUse" color-interpolation-filters="sRGB">
<feFlood flood-opacity="0" result="BackgroundImageFix"/>
<feBlend mode="normal" in="SourceGraphic" in2="BackgroundImageFix" result="shape"/>
<feGaussianBlur stdDeviation="15" result="effect1_foregroundBlur"/>
</filter>
<linearGradient id="paint0_linear" x1="234.456" y1="231.182" x2="234.456" y2="492.72" gradientUnits="userSpaceOnUse">
<stop stop-color="#EBEBEB"/>
<stop offset="0.138318" stop-color="#EBEBEB"/>
<stop offset="1" stop-color="#F4F4F4"/>
</linearGradient>
</defs>
</svg>
