<svg width="54" height="36" viewBox="0 0 54 36" fill="none" xmlns="http://www.w3.org/2000/svg">
<path d="M26.7391 6L49.8959 28.5H3.58237L26.7391 6Z" fill="#FDFDFD"/>
<path d="M31.99 18.948C32.5873 18.948 33.0073 19.0787 33.25 19.34C33.4927 19.6013 33.614 19.984 33.614 20.488C33.614 20.9547 33.474 21.3093 33.194 21.552C32.9327 21.776 32.5033 21.888 31.906 21.888H28.434V25.024C28.434 26.1067 27.93 26.648 26.922 26.648C26.3433 26.648 25.9513 26.5173 25.746 26.256C25.5407 25.976 25.438 25.5467 25.438 24.968V21.888C24.5607 21.888 23.4127 21.8693 21.994 21.832C21.4527 21.8133 21.0513 21.692 20.79 21.468C20.5473 21.2253 20.426 20.8707 20.426 20.404C20.426 19.3773 20.9393 18.864 21.966 18.864C23.422 18.864 24.57 18.8733 25.41 18.892V15.98C25.41 14.9533 25.9233 14.44 26.95 14.44C27.4913 14.44 27.874 14.5707 28.098 14.832C28.322 15.0933 28.434 15.476 28.434 15.98V18.92C29.3673 18.9387 30.5527 18.948 31.99 18.948Z" fill="#333333"/>
</svg>
