<svg width="585" height="766" viewBox="0 0 585 766" fill="none" xmlns="http://www.w3.org/2000/svg">
<path d="M183.5 0C404.959 0 585 180.041 585 401.5C585 622.959 404.959 803 183.5 803C150.535 803 119.26 798.774 88.8305 792.012V401.5C88.8305 349.094 131.094 305.985 183.5 305.985C235.906 305.985 279.015 348.248 279.015 401.5C279.015 447.989 245.204 486.872 201.25 495.324C191.107 497.015 184.345 505.467 184.345 516.456V676.21C184.345 688.889 194.488 698.187 207.167 697.342C359.315 684.663 479.342 557.028 479.342 401.5C479.342 238.364 346.636 105.658 183.5 105.658C20.3642 105.658 -112.342 238.364 -112.342 401.5V672.829C-178.273 601.827 -218 506.313 -218 401.5C-218 180.041 -37.959 0 183.5 0Z" fill="#A6C3E3"/>
</svg>
