<svg width="238" height="299" viewBox="0 0 238 299" fill="none" xmlns="http://www.w3.org/2000/svg">
<path d="M143.988 35.5779C145.164 34.1929 144.758 34.0661 143.719 34.7904C142.679 35.5147 139.579 38.0952 135.215 41.9217C120.669 54.4895 107.457 68.5335 95.766 83.8531C88.1304 93.9855 81.6546 104.987 76.4525 116.663C71.2722 128.738 67.7374 141.541 65.9404 154.738C63.9489 169.504 63.6946 184.55 65.1828 199.568C66.6611 214.529 69.4202 229.403 73.4292 244.022C76.0848 253.849 79.2322 263.56 82.8589 273.115C85.5271 279.386 81.8905 268.403 79.2721 258.397C72.4498 234.938 68.281 210.913 66.8476 186.793C65.8915 167.253 68.3653 147.885 74.1544 129.587C80.4233 111.269 89.9611 94.4161 102.315 79.8279C109.482 70.9053 120.52 59.4198 126.787 53.0401C135.172 44.6213 140.482 39.5612 143.988 35.5779Z" fill="#95B4D7"/>
<path d="M64.9776 165.566C66.5087 155.825 71.3293 147.09 78.6383 140.813C81.999 137.777 86.1611 135.761 90.6841 134.978C93.0225 134.627 95.4395 134.831 97.7462 135.576C100.053 136.32 102.187 137.585 103.981 139.27C104.958 140.129 105.625 141.289 105.868 142.551C106.145 145.361 103.001 146.756 100.446 147.52C87.4712 151.349 75.4988 157.737 65.1977 166.327C61.312 149.36 50.9862 134.278 36.49 124.396C35.2767 123.403 33.7921 122.829 32.2704 122.764C29.2418 122.967 28.2775 126.851 28.6211 129.973C29.2483 135.874 31.8648 141.487 36.0288 145.864C39.1628 148.924 42.634 151.606 46.3655 153.852L68.3223 168.287" fill="#95B4D7"/>
<path d="M84.9351 102.882C89.9742 97.3711 96.7027 93.7103 104.156 92.4249C111.609 91.1395 119.404 92.2955 126.423 95.7271C127.19 96.0324 127.868 96.5463 128.378 97.2093C128.839 98.1169 128.948 99.1496 128.681 100.095C128.054 103.107 126.467 105.78 124.156 107.715C121.845 109.65 118.935 110.743 115.859 110.833C113.052 110.685 110.26 110.128 107.568 109.178L89.2089 104.085C87.979 103.799 86.7836 103.35 85.6543 102.75C84.2192 101.756 82.954 100.526 81.9159 99.114C76.9749 93.8089 73.2143 87.5178 70.9101 80.7022C69.1612 73.8255 71.4145 65.7108 77.6758 63.5493C80.8601 65.2575 83.6208 67.7097 85.7136 70.689C87.8065 73.6683 89.167 77.0828 89.6749 80.6306C90.6524 87.5234 90.2949 94.469 88.6226 101.077" fill="#95B4D7"/>
<path d="M112.2 67.3232C113.708 64.1096 116.266 61.5559 119.466 60.0672C122.667 58.5785 126.327 58.24 129.867 59.1053C133.469 60.1688 136.625 62.5222 138.727 65.7111C140.828 68.8999 141.726 72.6981 141.246 76.3722C141.102 77.2839 140.685 78.115 140.05 78.7555C138.011 80.44 134.893 78.1478 132.663 76.3342C129.409 73.7409 125.654 71.8949 121.681 70.9349C117.708 69.9749 113.62 69.9259 109.725 70.7916C103.415 59.2847 96.8716 46.9794 97.2549 34.3392C97.173 33.3584 97.2915 32.382 97.6028 31.4711C97.9141 30.5601 98.4117 29.734 99.0646 29.0442C101.694 26.8523 106.012 29.2405 108.199 32.2242C112.535 37.934 114.681 44.9618 114.213 51.9219C113.747 58.6787 112.352 65.2865 110.067 71.5573" fill="#95B4D7"/>
<path d="M141.156 38.1198C142.945 32.8155 145.246 27.7255 148.026 22.9198C149.517 19.8113 151.815 17.1993 154.689 15.3468C156.202 14.459 157.98 14.0924 159.771 14.2994C161.561 14.5064 163.272 15.2764 164.659 16.4995C166.039 18.1288 166.839 20.162 166.921 22.2495C167.004 24.3371 166.364 26.3488 165.112 27.9387C162.474 30.9397 159.079 33.1644 155.253 34.4007L140.927 40.6271" fill="#95B4D7"/>
<path d="M143.671 37.9466C151.158 37.4855 157.485 44.6883 162.258 51.1152C163.098 52.0098 163.618 53.1555 163.728 54.3547C163.598 55.1441 163.165 55.8346 162.523 56.2811C161.88 56.7276 161.077 56.8954 160.283 56.7492C158.66 56.4118 157.124 55.6783 155.811 54.614L139.518 43.4464C142.454 35.0901 142.69 25.875 140.194 17.0771C139.918 15.2891 139.171 13.5833 138.033 12.1406C136.895 10.6979 135.408 9.57196 133.729 8.88221C131.937 8.75266 130.191 9.25329 128.787 10.2987C127.384 11.344 126.411 12.8694 126.034 14.6143C124.543 19.8117 125.125 25.4995 127.659 30.4985C130.193 35.4976 134.485 39.4246 139.645 41.4655" fill="#95B4D7"/>
<path d="M191.616 117.631C193.048 116.766 192.723 116.575 191.597 116.935C190.471 117.294 186.994 118.707 182.047 120.852C165.61 127.853 149.944 136.34 135.275 146.193C125.659 152.731 116.83 160.226 108.945 168.546C100.968 177.194 94.2499 186.79 88.966 197.086C83.0708 208.61 78.6413 220.741 75.7681 233.23C72.9021 245.67 71.1988 258.319 70.6773 271.035C70.2917 279.575 70.3758 288.127 70.9292 296.659C71.5485 302.321 71.3852 292.631 71.8538 283.954C72.3447 263.464 75.352 243.095 80.8167 223.247C85.4262 207.212 93.0355 192.066 103.292 178.511C113.981 165.045 127.165 153.48 142.22 144.364C151.082 138.703 164.1 131.813 171.451 128.015C181.256 123.029 187.388 120.091 191.616 117.631Z" fill="#95B4D7"/>
<path d="M85.085 205.646C89.1671 198.091 95.8915 192.07 104.141 188.583C107.975 186.858 112.237 186.135 116.476 186.49C118.652 186.716 120.743 187.41 122.585 188.517C124.427 189.624 125.97 191.114 127.093 192.871C127.721 193.78 127.99 194.866 127.854 195.94C127.315 198.277 124.131 198.72 121.647 198.781C109.047 199.046 96.6225 201.604 85.0681 206.311C86.3551 191.72 81.3923 177.248 71.2706 166.076C70.4698 165.007 69.3108 164.218 67.9767 163.833C65.2285 163.335 63.2862 166.271 62.7195 168.874C61.6282 173.791 62.3853 178.908 64.8629 183.363C66.7933 186.526 69.1287 189.457 71.8174 192.092L87.2974 208.58" fill="#95B4D7"/>
<path d="M120.334 159.238C126.351 155.876 133.354 154.381 140.336 154.969C147.319 155.556 153.923 158.196 159.202 162.509C159.799 162.924 160.258 163.488 160.526 164.137C160.682 164.972 160.49 165.832 159.989 166.54C158.59 168.842 156.433 170.66 153.838 171.722C151.244 172.785 148.352 173.034 145.594 172.435C143.141 171.702 140.815 170.64 138.688 169.283L123.796 161.146C122.783 160.646 121.846 160.021 121.01 159.288C120.012 158.17 119.231 156.897 118.703 155.527C115.794 150.15 114.21 144.233 114.066 138.21C114.433 132.258 118.703 126.178 124.871 125.796C127.224 127.875 128.992 130.464 130.02 133.334C131.047 136.205 131.302 139.268 130.762 142.252C129.705 148.048 127.447 153.595 124.115 158.582" fill="#95B4D7"/>
<path d="M154.497 136.396C156.736 134.123 159.722 132.613 162.982 132.107C166.242 131.601 169.59 132.126 172.494 133.601C175.398 135.249 177.545 137.845 178.522 140.887C179.499 143.929 179.235 147.201 177.782 150.072C177.4 150.779 176.797 151.361 176.053 151.741C173.771 152.659 171.64 150.122 170.166 148.166C167.998 145.354 165.177 143.039 161.914 141.393C158.652 139.747 155.033 138.814 151.329 138.664C148.936 127.966 146.559 116.57 150.431 106.416C150.632 105.604 151.01 104.839 151.542 104.169C152.073 103.499 152.746 102.939 153.519 102.523C156.468 101.322 159.638 104.2 160.748 107.094C163.006 112.666 162.95 118.827 160.59 124.362C158.287 129.733 155.201 134.779 151.419 139.359" fill="#95B4D7"/>
<path d="M188.389 119.071C191.461 115.166 194.928 111.546 198.741 108.262C200.935 106.07 203.707 104.456 206.779 103.584C208.371 103.196 210.054 103.287 211.587 103.846C213.121 104.405 214.426 105.403 215.317 106.696C216.088 108.317 216.23 110.139 215.721 111.848C215.211 113.556 214.08 115.046 212.524 116.06C209.341 117.914 205.702 118.974 201.956 119.139L187.486 121.052" fill="#95B4D7"/>
<path d="M190.674 119.48C197.456 120.743 201.066 127.959 203.512 134.207C204.009 135.115 204.151 136.157 203.914 137.152C203.577 137.763 203 138.228 202.304 138.449C201.609 138.67 200.848 138.631 200.183 138.339C198.835 137.711 197.675 136.781 196.805 135.632L185.446 123.027C190.39 116.901 193.174 109.489 193.413 101.818C193.668 100.309 193.481 98.7648 192.872 97.3476C192.264 95.9304 191.257 94.6936 189.958 93.7681C188.402 93.2717 186.71 93.2955 185.171 93.8355C183.631 94.3755 182.34 95.3982 181.518 96.7291C178.741 100.613 177.669 105.347 178.525 109.949C179.38 114.552 182.097 118.67 186.112 121.451" fill="#95B4D7"/>
</svg>
