<svg width="283" height="244" viewBox="0 0 283 244" fill="none" xmlns="http://www.w3.org/2000/svg">
<path fill-rule="evenodd" clip-rule="evenodd" d="M168.247 244C170.151 175.138 170.741 106.719 203.63 27.1427C222.716 -18.3734 271.755 0.417483 280.122 31.988C292.906 101.721 259.717 180.564 220.084 244H168.247Z" fill="#FDFFFC"/>
<path fill-rule="evenodd" clip-rule="evenodd" d="M134.473 244C132.864 186.442 131.979 129.184 104.525 62.6587C88.2334 24.044 46.6725 40.0506 39.4807 66.9424C28.9096 125.067 55.9299 190.549 88.8188 244H134.473Z" fill="#FDFFFC"/>
<path fill-rule="evenodd" clip-rule="evenodd" d="M130.513 244C128.9 193.344 129.176 143.272 105.116 84.8387C91.4605 52.3925 56.3536 65.7527 50.4993 88.3608C41.1228 139.603 66.6439 198.036 96.1534 244H130.513Z" fill="#FFE1E6"/>
<path fill-rule="evenodd" clip-rule="evenodd" d="M94.3923 47.3995C43.0266 0.564995 -47.7296 171.906 31.1276 189.669C69.8851 189.964 90.7322 141.949 94.4018 47.3995H94.3923Z" fill="#FDFFFC"/>
<path fill-rule="evenodd" clip-rule="evenodd" d="M89.114 43.5777C41.8321 0.565102 -43.9123 161.183 28.6194 177.632C64.3165 177.922 85.7347 130.512 89.114 43.5777Z" fill="#EFEFEF"/>
<path fill-rule="evenodd" clip-rule="evenodd" d="M168.247 244C170.151 178.37 170.741 113.035 202.017 37.2711C220.217 -6.04131 267.057 11.8691 274.982 41.9689C287.195 108.351 255.605 183.501 217.871 244H168.247Z" fill="#EFEFEF"/>
<path fill-rule="evenodd" clip-rule="evenodd" d="M173.093 244C174.854 183.215 173.973 123.311 203.04 53.1398C219.047 14.963 260.303 30.6745 267.352 57.2521C278.508 119.046 246.943 189.374 211.265 244H173.093Z" fill="#FFE1E6"/>
</svg>
